<svg xmlns="http://www.w3.org/2000/svg" xmlns:xlink="http://www.w3.org/1999/xlink" viewBox="0,0,256,256" width="50px" height="50px" fill-rule="nonzero"><g transform="translate(25.6,25.6) scale(0.8,0.8)"><g fill="#fcc419" fill-rule="nonzero" stroke="#fcc419" stroke-width="6" stroke-linecap="butt" stroke-linejoin="round" stroke-miterlimit="10" stroke-dasharray="" stroke-dashoffset="0" font-family="none" font-weight="none" font-size="none" text-anchor="none" style="mix-blend-mode: normal"><path transform="translate(-43.09418,75.69004) rotate(-27) scale(5.12,5.12) skewX(0)" d="M26.89648,1.54688l13.91602,21.86914l0.03125,0.04688c0.00131,0.0026 0.00262,0.0052 0.00391,0.00781c0.00197,0.00324 0.00393,0.0065 0.00586,0.00977c0.01691,0.02659 0.03255,0.05396 0.04688,0.08203c0.00066,0.00195 0.00131,0.0039 0.00195,0.00586c0.00065,0.00065 0.0013,0.0013 0.00195,0.00195c0.00991,0.0218 0.01903,0.04395 0.02734,0.06641c0.00335,0.00777 0.00661,0.01558 0.00977,0.02344c0.00269,0.00713 0.00529,0.01429 0.00781,0.02148c0.00811,0.02445 0.01528,0.04921 0.02148,0.07422c0,0.0013 0,0.0026 0,0.00391c0.00706,0.02773 0.01292,0.05575 0.01758,0.08398c0.00067,0.00325 0.00132,0.00651 0.00195,0.00977c0,0.00065 0,0.0013 0,0.00195c0.00261,0.02077 0.00456,0.04161 0.00586,0.0625c0.00188,0.01949 0.00318,0.03903 0.00391,0.05859c0.00075,0.03061 0.0001,0.06124 -0.00195,0.0918c0.00001,0.0026 0.00001,0.00521 0,0.00781c-0.00228,0.02551 -0.00554,0.05092 -0.00977,0.07617c-0.00443,0.03086 -0.01029,0.06149 -0.01758,0.0918c-0.00064,0.00196 -0.0013,0.00391 -0.00195,0.00586c-0.00065,0.0013 -0.0013,0.00261 -0.00195,0.00391c-0.0057,0.02301 -0.01221,0.04581 -0.01953,0.06836c-0.00251,0.00784 -0.00511,0.01566 -0.00781,0.02344c-0.00252,0.00719 -0.00513,0.01435 -0.00781,0.02148c-0.00951,0.02383 -0.01994,0.04728 -0.03125,0.07031c0,0.00065 0,0.0013 0,0.00195c-0.01438,0.0274 -0.03002,0.05412 -0.04687,0.08008c-0.00065,0.00196 -0.0013,0.00391 -0.00195,0.00586c-0.00065,0.00065 -0.0013,0.0013 -0.00195,0.00195c-0.01692,0.02756 -0.03517,0.05428 -0.05469,0.08008c-0.0202,0.02645 -0.04172,0.05187 -0.06445,0.07617c-0.01931,0.02104 -0.03951,0.04124 -0.06055,0.06055c-0.00388,0.00328 -0.00779,0.00654 -0.01172,0.00977c-0.0013,0.00131 -0.0026,0.00261 -0.00391,0.00391c-0.01961,0.01573 -0.03981,0.03071 -0.06055,0.04492c-0.00452,0.00395 -0.00908,0.00785 -0.01367,0.01172c-0.00646,0.00463 -0.01297,0.00919 -0.01953,0.01367c-0.02095,0.01449 -0.04245,0.02817 -0.06445,0.04102c-0.00711,0.00399 -0.01428,0.0079 -0.02148,0.01172l-13.86133,7.92188c-0.36328,0.28306 -0.87289,0.28145 -1.23437,-0.00391l-13.87305,-7.92773c-0.00065,-0.00065 -0.0013,-0.0013 -0.00195,-0.00195c-0.00523,-0.00256 -0.01044,-0.00516 -0.01562,-0.00781c-0.00065,-0.00065 -0.0013,-0.0013 -0.00195,-0.00195c-0.05646,-0.03377 -0.10945,-0.07302 -0.1582,-0.11719c-0.00065,-0.00065 -0.0013,-0.0013 -0.00195,-0.00195c-0.02392,-0.02231 -0.04674,-0.04577 -0.06836,-0.07031c-0.01211,-0.01399 -0.02384,-0.02832 -0.03516,-0.04297c-0.01003,-0.01149 -0.0198,-0.02322 -0.0293,-0.03516c-0.01957,-0.02643 -0.03782,-0.0538 -0.05469,-0.08203c0,-0.00065 0,-0.0013 0,-0.00195c-0.01702,-0.02786 -0.03266,-0.05654 -0.04687,-0.08594c0,-0.00065 0,-0.0013 0,-0.00195c-0.01388,-0.02997 -0.02626,-0.0606 -0.03711,-0.0918c0,-0.00065 0,-0.0013 0,-0.00195c-0.00273,-0.00908 -0.00534,-0.01819 -0.00781,-0.02734c-0.01538,-0.04787 -0.02714,-0.09684 -0.03516,-0.14648c-0.00137,-0.0065 -0.00267,-0.01301 -0.00391,-0.01953c-0.0042,-0.0324 -0.0068,-0.065 -0.00781,-0.09766c0,-0.00065 0,-0.0013 0,-0.00195c-0.0021,-0.0667 0.00248,-0.13344 0.01367,-0.19922c0.01106,-0.06605 0.02873,-0.13083 0.05273,-0.19336c0.01155,-0.03057 0.02458,-0.06055 0.03906,-0.08984c0.00065,-0.00065 0.0013,-0.0013 0.00195,-0.00195c0.01866,-0.0364 0.03953,-0.07162 0.0625,-0.10547l13.92969,-21.89062c0.16403,-0.34097 0.50644,-0.56017 0.88477,-0.56641c0.38687,-0.00531 0.7421,0.213 0.91211,0.56055zM40.89604,28.55131c0.16827,0.33696 0.13297,0.73989 -0.09135,1.04244l-13.93555,18.91211c-0.17792,0.31317 -0.5105,0.50648 -0.87069,0.50608c-0.36019,-0.0004 -0.69233,-0.19446 -0.86955,-0.50803l-13.93359,-18.91016c-0.22619,-0.30651 -0.25861,-0.71489 -0.08363,-1.05325c0.17499,-0.33836 0.52699,-0.54793 0.90785,-0.5405c0.1673,0.00307 0.33116,0.04806 0.47656,0.13086l13.50391,7.7168l13.50391,-7.7168c0.15328,-0.08802 0.32715,-0.13385 0.50391,-0.13281c0.37663,0.00245 0.71995,0.2163 0.88822,0.55326z" id="strokeMainSVG"></path></g><g fill="#000000" fill-rule="nonzero" stroke="none" stroke-width="1" stroke-linecap="butt" stroke-linejoin="miter" stroke-miterlimit="10" stroke-dasharray="" stroke-dashoffset="0" font-family="none" font-weight="none" font-size="none" text-anchor="none" style="mix-blend-mode: normal"><g transform="translate(-43.09418,75.69004) rotate(-27) scale(5.12,5.12)"><path d="M25.98438,0.98633c-0.37832,0.00623 -0.72074,0.22544 -0.88477,0.56641l-13.92969,21.89062c-0.02297,0.03385 -0.04384,0.06907 -0.0625,0.10547c-0.00065,0.00065 -0.0013,0.0013 -0.00195,0.00195c-0.01448,0.02929 -0.02752,0.05928 -0.03906,0.08984c-0.024,0.06253 -0.04167,0.1273 -0.05273,0.19336c-0.01119,0.06578 -0.01577,0.13252 -0.01367,0.19922c0,0.00065 0,0.0013 0,0.00195c0.00101,0.03266 0.00361,0.06525 0.00781,0.09766c0.00124,0.00652 0.00254,0.01303 0.00391,0.01953c0.00802,0.04964 0.01977,0.09861 0.03516,0.14648c0.00247,0.00915 0.00508,0.01827 0.00781,0.02734c0,0.00065 0,0.0013 0,0.00195c0.01085,0.03119 0.02323,0.06183 0.03711,0.0918c0,0.00065 0,0.0013 0,0.00195c0.01421,0.02939 0.02986,0.05807 0.04688,0.08594c0,0.00065 0,0.0013 0,0.00195c0.01687,0.02823 0.03512,0.0556 0.05469,0.08203c0.0095,0.01194 0.01926,0.02366 0.0293,0.03516c0.01132,0.01465 0.02304,0.02897 0.03516,0.04297c0.02162,0.02454 0.04444,0.04801 0.06836,0.07031c0.00065,0.00065 0.0013,0.0013 0.00195,0.00195c0.04876,0.04417 0.10175,0.08342 0.1582,0.11719c0.00065,0.00065 0.0013,0.0013 0.00195,0.00195c0.00519,0.00265 0.01039,0.00525 0.01563,0.00781c0.00065,0.00065 0.0013,0.0013 0.00195,0.00195l13.87305,7.92773c0.36148,0.28536 0.8711,0.28697 1.23438,0.00391l13.86133,-7.92187c0.00721,-0.00382 0.01437,-0.00772 0.02148,-0.01172c0.022,-0.01285 0.0435,-0.02653 0.06445,-0.04102c0.00656,-0.00448 0.01308,-0.00904 0.01953,-0.01367c0.00459,-0.00387 0.00915,-0.00777 0.01367,-0.01172c0.02074,-0.01421 0.04094,-0.02919 0.06055,-0.04492c0.00131,-0.0013 0.00261,-0.0026 0.00391,-0.00391c0.00393,-0.00323 0.00784,-0.00648 0.01172,-0.00977c0.02104,-0.01931 0.04124,-0.03951 0.06055,-0.06055c0.02274,-0.0243 0.04425,-0.04973 0.06445,-0.07617c0.01951,-0.02579 0.03776,-0.05252 0.05469,-0.08008c0.00065,-0.00065 0.0013,-0.0013 0.00195,-0.00195c0.00066,-0.00195 0.00131,-0.0039 0.00195,-0.00586c0.01685,-0.02595 0.0325,-0.05268 0.04688,-0.08008c0,-0.00065 0,-0.0013 0,-0.00195c0.01131,-0.02303 0.02174,-0.04648 0.03125,-0.07031c0.00269,-0.00713 0.00529,-0.01429 0.00781,-0.02148c0.0027,-0.00778 0.00531,-0.01559 0.00781,-0.02344c0.00732,-0.02255 0.01383,-0.04535 0.01953,-0.06836c0.00065,-0.0013 0.0013,-0.0026 0.00195,-0.00391c0.00066,-0.00195 0.00131,-0.0039 0.00195,-0.00586c0.00729,-0.03031 0.01315,-0.06094 0.01758,-0.0918c0.00423,-0.02526 0.00749,-0.05067 0.00977,-0.07617c0.00001,-0.0026 0.00001,-0.00521 0,-0.00781c0.00206,-0.03055 0.00271,-0.06118 0.00195,-0.0918c-0.00073,-0.01957 -0.00203,-0.0391 -0.00391,-0.05859c-0.0013,-0.02089 -0.00325,-0.04173 -0.00586,-0.0625c0,-0.00065 0,-0.0013 0,-0.00195c-0.00063,-0.00326 -0.00129,-0.00651 -0.00195,-0.00977c-0.00466,-0.02823 -0.01052,-0.05625 -0.01758,-0.08398c0,-0.0013 0,-0.0026 0,-0.00391c-0.0062,-0.02501 -0.01337,-0.04976 -0.02148,-0.07422c-0.00252,-0.00719 -0.00513,-0.01435 -0.00781,-0.02148c-0.00316,-0.00785 -0.00641,-0.01567 -0.00977,-0.02344c-0.00832,-0.02246 -0.01744,-0.04461 -0.02734,-0.06641c-0.00065,-0.00065 -0.0013,-0.0013 -0.00195,-0.00195c-0.00064,-0.00196 -0.0013,-0.00391 -0.00195,-0.00586c-0.01433,-0.02807 -0.02997,-0.05544 -0.04687,-0.08203c-0.00193,-0.00327 -0.00389,-0.00652 -0.00586,-0.00977c-0.00129,-0.00261 -0.00259,-0.00521 -0.00391,-0.00781l-0.03125,-0.04687l-13.91602,-21.86914c-0.17001,-0.34755 -0.52524,-0.56586 -0.91211,-0.56055zM25,5.43555v11.9043l-10.41602,4.46289zM27,5.43555l10.41602,16.36719l-10.41602,-4.46289zM25,19.51563v10.75977l-10.75781,-6.14648zM27,19.51563l10.75781,4.61328l-10.75781,6.14648zM40.00781,27.99805c-0.17675,-0.00104 -0.35063,0.04479 -0.50391,0.13281l-13.50391,7.7168l-13.50391,-7.7168c-0.14541,-0.0828 -0.30926,-0.12779 -0.47656,-0.13086c-0.38086,-0.00743 -0.73286,0.20214 -0.90785,0.5405c-0.17499,0.33836 -0.14256,0.74674 0.08363,1.05325l13.93359,18.91016c0.17722,0.31357 0.50936,0.50763 0.86955,0.50803c0.36019,0.0004 0.69276,-0.1929 0.87069,-0.50608l13.93555,-18.91211c0.22431,-0.30256 0.25962,-0.70548 0.09135,-1.04244c-0.16827,-0.33696 -0.51159,-0.55081 -0.88822,-0.55326zM15.61328,32.2168l9.38672,5.36523v7.375zM36.38672,32.2168l-9.38672,12.74023v-7.375z"></path></g></g></g></svg>